<?xml version="1.0" encoding="utf-8"?>
<!-- Generator: Adobe Illustrator 27.3.1, SVG Export Plug-In . SVG Version: 6.00 Build 0)  -->
<svg version="1.1" id="Layer_1" xmlns="http://www.w3.org/2000/svg" xmlns:xlink="http://www.w3.org/1999/xlink" x="0px" y="0px"
	 viewBox="0 0 196 196" style="enable-background:new 0 0 196 196;" xml:space="preserve">
<style type="text/css">
	.st0{fill:#E6F7F0;}
	.st1{fill:none;stroke:#119D60;stroke-width:9;stroke-miterlimit:133.3333;}
	
		.st2{opacity:0.5;fill:none;stroke:#119D60;stroke-width:9;stroke-linecap:round;stroke-miterlimit:133.3333;enable-background:new    ;}
</style>
<g id="SVGRepo_bgCarrier">
	<path class="st0" d="M93.4,182.2c12.2,2.3,26,3.7,36.8-2.5c10.8-6.2,13.6-20.3,20.6-30.6c6.5-9.6,14-18,19.4-28.2
		c6.6-12.5,19.2-24.9,16.1-38.7c-3.1-13.8-19.6-19.8-31.3-27.9c-9.5-6.6-21.1-8.6-30.6-15.1c-11.5-7.9-17.1-25.9-30.9-27.3
		c-13.4-1.3-23,13.1-34,20.9C49.8,39.6,40.2,46,32.6,54.9C24.8,64,18.2,74,14.3,85.3c-4.1,12-5.7,24.6-4.7,37.2
		c1,13.7,0,30.5,10.6,39.3c11.1,9.3,28.6,1.5,42.5,5.4C73.8,170.3,82.1,180.1,93.4,182.2"/>
</g>
<g>
	<path class="st1" d="M43.7,152.3c9.3,9.3,24.3,9.3,54.3,9.3c30,0,45,0,54.3-9.3c9.3-9.3,9.3-24.3,9.3-54.3c0-30,0-45-9.3-54.3
		C143,34.4,128,34.4,98,34.4c-30,0-45,0-54.3,9.3C34.4,53,34.4,68,34.4,98C34.4,128,34.4,143,43.7,152.3z"/>
	<path class="st2" d="M136.2,75.7h-25.4 M136.2,113.9h-25.4 M136.2,133h-25.4 M85.3,75.7H72.6 M72.6,75.7H59.8 M72.6,75.7V63
		 M72.6,75.7v12.7 M82.1,113.9l-9.5,9.5 M72.6,123.4L63,133 M72.6,123.4l-9.5-9.5 M72.6,123.4l9.5,9.5"/>
</g>
</svg>
