<?xml version="1.0" encoding="UTF-8"?><svg id="Layer_1" xmlns="http://www.w3.org/2000/svg" viewBox="0 0 136.2 136.2"><defs><style>.cls-1,.cls-2{fill:none;stroke:#119d60;stroke-miterlimit:133.33;stroke-width:9px;}.cls-2{isolation:isolate;opacity:.5;stroke-linecap:round;}</style></defs><path class="cls-1" d="m13.8,122.4c9.3,9.3,24.3,9.3,54.3,9.3s45,0,54.3-9.3,9.3-24.3,9.3-54.3,0-45-9.3-54.3-24.3-9.3-54.3-9.3-45,0-54.3,9.3-9.3,24.3-9.3,54.3,0,45,9.3,54.3Z"/><path class="cls-2" d="m106.3,45.8h-25.4m25.4,38.2h-25.4m25.4,19.1h-25.4m-25.5-57.3h-12.7m0,0h-12.8m12.8,0v-12.7m0,12.7v12.7m9.5,25.5l-9.5,9.5m0,0l-9.6,9.6m9.6-9.6l-9.5-9.5m9.5,9.5l9.5,9.5"/></svg>