<?xml version="1.0" encoding="utf-8"?>
<!-- Generator: Adobe Illustrator 27.3.1, SVG Export Plug-In . SVG Version: 6.00 Build 0)  -->
<svg version="1.1" id="Layer_1" xmlns="http://www.w3.org/2000/svg" xmlns:xlink="http://www.w3.org/1999/xlink" x="0px" y="0px"
	 viewBox="0 0 196 196" style="enable-background:new 0 0 196 196;" xml:space="preserve">
<style type="text/css">
	.st0{fill:#E6F7F0;}
	.st1{fill:none;stroke:#119D60;stroke-width:8;stroke-linecap:round;stroke-linejoin:round;stroke-miterlimit:27.2222;}
	
		.st2{opacity:0.52;fill:none;stroke:#119D60;stroke-width:8;stroke-linecap:round;stroke-linejoin:round;stroke-miterlimit:27.2222;}
	.st3{fill:none;stroke:#119D60;stroke-width:8.82;stroke-linecap:round;stroke-linejoin:round;stroke-miterlimit:27.2222;}
	.st4{fill:#119D60;}
	.st5{fill:#119D60;stroke:#119D60;stroke-width:1.633340e-03;stroke-miterlimit:1.3015;}
	.st6{fill:#119D60;stroke:#119D60;stroke-width:2;stroke-miterlimit:1.3015;}
	.st7{fill:none;}
	.st8{fill:none;stroke:#7BC9A8;stroke-width:6.75;stroke-linecap:round;stroke-linejoin:round;stroke-miterlimit:27.2222;}
</style>
<g>
	<path class="st0" d="M172.3,93.9c-3-16.9-8.5-32.4-19.4-45.7l0.7-0.7c-0.6-0.3-1.3-0.6-1.9-0.8c-10.9-13-23.1-26.7-39-30.5
		c-3.4-3.4-7.2-5.9-12.1-6.4c-9.8-1-17.5,6.4-25.2,13.5c-6.8,3.9-13.1,9-18.8,14.5c-6.1,4.5-11.8,9.2-16.8,15
		C32,61.9,25.4,71.9,21.5,83.3c-4.1,12-5.7,24.6-4.7,37.2c1,13.3,0.1,29.6,9.8,38.6l0,0c13.6,14.5,60.5,11.8,80,15.6
		c22.9,4.4,50.8,2.8,65.5-15.3C186.4,141.8,176.2,116.2,172.3,93.9z"/>
	<g>
		<g>
			<path class="st1" d="M122.4,58.7H55.7c-7.6,0-11.4,0-14.3,1.5c-2.6,1.3-4.6,3.4-5.9,5.9c-1.5,3-1.5,6.8-1.5,14.4v31.3
				c0,7.6,0,11.4,1.5,14.3c1.3,2.6,3.4,4.6,5.9,5.9c1.6,0.8,3.6,1.2,6.3,1.4"/>
		</g>
		<path class="st2" d="M81.6,96.2H54.4H81.6z"/>
		<line class="st3" x1="42.9" y1="43.5" x2="65.9" y2="43.5"/>
	</g>
	<g>
		<path class="st4" d="M121.3,156.6c-1.3-1.3-3.3-1.3-4.6,0c-1.3,1.3-1.3,3.3,0,4.6l1.6,1.6c0.6,0.6,1.5,1,2.3,1s1.7-0.3,2.3-0.9
			c1.3-1.3,1.3-3.3,0-4.6L121.3,156.6z"/>
		<path class="st5" d="M161.7,75.6c1.8,0,3.3-1.5,3.3-3.3s-1.5-3.3-3.3-3.3h-1.2v-4v-0.1c0.1-1.2-0.6-2.5-1.7-3.1l-4.1-2.2l-8.3,8.3
			h7.6V69h-1.2c-1.8,0-3.3,1.5-3.3,3.3s1.5,3.3,3.3,3.3h1.2v1.1h-1.2c-1.8,0-3.3,1.5-3.3,3.3s1.5,3.3,3.3,3.3h1.2v1.2
			c0,1.8,1.5,3.3,3.3,3.3s3.3-1.5,3.3-3.3v-1.2h1.2c1.8,0,3.3-1.5,3.3-3.3s-1.5-3.3-3.3-3.3h-1.2v-1.1H161.7z"/>
	</g>
	<g>
		<path class="st6" d="M35.5,168.5c-0.4,0-0.8-0.2-1.2-0.5c-0.6-0.6-0.6-1.7,0-2.3l126.9-127c0.6-0.6,1.7-0.6,2.3,0s0.6,1.7,0,2.3
			L36.6,168C36.3,168.3,35.9,168.5,35.5,168.5z"/>
	</g>
</g>
<g>
	<polygon class="st7" points="127.4,96.7 144.3,96.7 127.4,87.8 	"/>
	<polygon class="st7" points="131.4,146.5 128.9,135.5 117.9,146.5 	"/>
	<polygon class="st7" points="82.3,172.9 102.1,153 86.8,153 	"/>
	<path class="st4" d="M161.8,112h-1.2v-1.1h1.2c1.8,0,3.3-1.5,3.3-3.3c0-1.8-1.5-3.3-3.3-3.3h-1.2v-0.9v-3.1c0,0,0,0,0-0.1
		c0-1.2-0.6-2.3-1.7-2.9l-27.2-14.4l-10.8,10.8v3.1h-0.1h-3.2l-6.6,6.6h10.5l4,17.5L108,106.4l-4.6,4.6l22.2,18.5l-17,17H88.4
		l2.5-11.1l6.9,6.9c0.6,0.6,1.5,1,2.3,1c0.8,0,1.7-0.3,2.3-1c1.3-1.3,1.3-3.3,0-4.6l-8.3-8.3l10.1-8.4c1.4-1.1,1.6-3.2,0.4-4.6
		c-1.1-1.4-3.2-1.6-4.6-0.4l-5.8,4.9l-8.5,7.8l-12.3,53.6c-0.4,1.8,0.7,3.5,2.4,3.9c0.3,0.1,0.5,0.1,0.8,0.1h0.1
		c0.8,0,1.7-0.3,2.3-1l32.2-32.2h21.5l4.6,20.1l-7.4-7.4c-1.3-1.3-3.3-1.3-4.6,0c-1.3,1.3-1.3,3.3,0,4.6l15.1,14.8l0.8,0.7
		c0.5,0.3,1.1,0.5,1.7,0.5c0.2,0,0.5,0,0.7-0.1c1.8-0.4,2.8-2.1,2.4-3.9l-18.1-79h25.3h0.8v0.9h-1.2c-1.8,0-3.3,1.5-3.3,3.3
		c0,1.8,1.5,3.3,3.3,3.3h1.2v1.1h-1.2c-1.8,0-3.3,1.5-3.3,3.3c0,1.8,1.5,3.3,3.3,3.3h1.2v1.2c0,1.8,1.5,3.3,3.3,3.3
		c1.8,0,3.3-1.5,3.3-3.3v-1.2h1.2c1.8,0,3.3-1.5,3.3-3.3C165.1,113.5,163.6,112,161.8,112z M82.3,172.9l4.5-19.9h15.3L82.3,172.9z
		 M128.9,135.5l2.5,11h-13.5L128.9,135.5z M127.4,96.7v-8.9l16.9,8.9H127.4z"/>
</g>
<line class="st8" x1="152.4" y1="107.6" x2="162.2" y2="107.6"/>
<line class="st8" x1="152.4" y1="115.4" x2="162.2" y2="115.4"/>
<line class="st8" x1="152.4" y1="72.3" x2="162.2" y2="72.3"/>
<line class="st8" x1="152.4" y1="80.1" x2="162.2" y2="80.1"/>
</svg>
