<?xml version="1.0" encoding="utf-8"?>
<!-- Generator: Adobe Illustrator 27.3.1, SVG Export Plug-In . SVG Version: 6.00 Build 0)  -->
<svg version="1.1" id="Buttary_icon_Compound" xmlns="http://www.w3.org/2000/svg" xmlns:xlink="http://www.w3.org/1999/xlink"
	 x="0px" y="0px" viewBox="0 0 196 196" style="enable-background:new 0 0 196 196;" xml:space="preserve">
<style type="text/css">
	.st0{fill:#E6F7F0;}
	.st1{fill:none;stroke:#119D60;stroke-width:8.82;stroke-linecap:round;stroke-linejoin:round;stroke-miterlimit:27.2222;}
	.st2{opacity:0.5;}
</style>
<g id="bgCarrier">
	<path class="st0" d="M98,176.8c12.2,2.3,26,3.7,36.8-2.5c10.8-6.2,13.6-20.3,20.6-30.6c6.5-9.6,14-18,19.4-28.2
		c6.6-12.5,19.2-24.9,16.1-38.7C187.6,63,171.2,57,159.5,48.9c-9.5-6.6-21.1-8.6-30.6-15.1C117.4,25.9,111.9,7.9,98,6.5
		C84.6,5.2,75,19.6,64,27.4c-9.6,6.8-19.2,13.2-26.8,22.1c-7.8,9.1-14.4,19.1-18.3,30.4c-4.1,12-5.7,24.6-4.7,37.2
		c1,13.7,0,30.5,10.6,39.3c11.1,9.3,28.6,1.5,42.5,5.4C78.4,164.9,86.6,174.7,98,176.8"/>
</g>
<g>
	<path id="Battry_icon" class="st1" d="M58.5,145.6h78.9c7.6,0,11.4,0,14.3-1.5c2.6-1.3,4.6-3.4,5.9-5.9c1.5-2.9,1.5-6.7,1.5-14.3
		V92.6c0-7.6,0-11.4-1.5-14.3c-1.3-2.6-3.4-4.6-5.9-5.9c-2.9-1.5-6.7-1.5-14.3-1.5H58.5c-7.6,0-11.4,0-14.3,1.5
		c-2.6,1.3-4.6,3.4-5.9,5.9c-1.5,2.9-1.5,6.7-1.5,14.3v31.3c0,7.6,0,11.4,1.5,14.3c1.3,2.6,3.4,4.6,5.9,5.9
		C47.1,145.6,50.9,145.6,58.5,145.6z"/>
	<g>
		<line class="st1" x1="50.4" y1="50.4" x2="77.6" y2="50.4"/>
		<line class="st1" x1="118.4" y1="50.4" x2="145.6" y2="50.4"/>
	</g>
	<g class="st2">
		<line class="st1" x1="57.2" y1="108.2" x2="84.4" y2="108.2"/>
		<line class="st1" x1="111.6" y1="108.2" x2="138.8" y2="108.2"/>
		<line class="st1" x1="125.2" y1="94.6" x2="125.2" y2="121.8"/>
	</g>
</g>
</svg>
