<?xml version="1.0" encoding="utf-8"?>
<!-- Generator: Adobe Illustrator 27.3.1, SVG Export Plug-In . SVG Version: 6.00 Build 0)  -->
<svg version="1.1" id="Layer_1" xmlns="http://www.w3.org/2000/svg" xmlns:xlink="http://www.w3.org/1999/xlink" x="0px" y="0px"
	 viewBox="0 0 196 196" style="enable-background:new 0 0 196 196;" xml:space="preserve">
<style type="text/css">
	.st0{fill:#E6F7F0;}
	.st1{fill:#119D60;stroke:#119D60;stroke-width:1.633340e-03;stroke-miterlimit:1.3015;}
	.st2{fill:none;stroke:#7BC9A8;stroke-width:6.75;stroke-linecap:round;stroke-linejoin:round;stroke-miterlimit:27.2222;}
</style>
<g id="SVGRepo_bgCarrier">
	<path class="st0" d="M98,178.8c22.9,4.4,50.8,2.8,65.5-15.3c14.3-17.6,4.1-43.1,0.2-65.5c-3-17.1-8.6-32.7-19.7-46
		c-12.5-15-26.6-31.2-46-32.5C77.7,18,59.1,30.3,45,45C31.2,59.4,20.8,78.1,22.5,98c1.7,18.7,18.3,30.6,31.1,44.3
		C67.2,156.9,78.5,175,98,178.8"/>
</g>
<g id="SVGRepo_tracerCarrier">
</g>
<g id="SVGRepo_iconCarrier">
	<g>
		<path class="st1" d="M109.4,150.1c-1.3-1.3-3.3-1.3-4.6,0c-1.3,1.3-1.3,3.3,0,4.6l1.6,1.6c0.6,0.6,1.5,1,2.3,1
			c0.8,0,1.7-0.3,2.3-0.9c1.3-1.3,1.3-3.3,0-4.6L109.4,150.1z"/>
		<path class="st1" d="M129.5,179.3c0.5,0.3,1.1,0.5,1.7,0.5c0.2,0,0.5,0,0.7-0.1c1.8-0.4,2.8-2.1,2.4-3.9l-18.1-79h25.9v0.9H141
			c-1.8,0-3.3,1.5-3.3,3.3s1.5,3.3,3.3,3.3h1.2v1.1H141c-1.8,0-3.3,1.5-3.3,3.3s1.5,3.3,3.3,3.3h1.2v1.2c0,1.8,1.5,3.3,3.3,3.3
			s3.3-1.5,3.3-3.3v-1.2h1.2c1.8,0,3.3-1.5,3.3-3.3s-1.5-3.3-3.3-3.3h-1.2v-1.1h1.2c1.8,0,3.3-1.5,3.3-3.3s-1.5-3.3-3.3-3.3h-1.2v-4
			c0,0,0,0,0-0.1c0-1.2-0.6-2.3-1.7-2.9L115.5,74V61.5h26.7v1.1H141c-1.8,0-3.3,1.5-3.3,3.3c0,1.8,1.5,3.3,3.3,3.3h1.2v1.1H141
			c-1.8,0-3.3,1.5-3.3,3.3s1.5,3.3,3.3,3.3h1.2v1.2c0,1.8,1.5,3.3,3.3,3.3s3.3-1.5,3.3-3.3v-1.2h1.2c1.8,0,3.3-1.5,3.3-3.3
			s-1.5-3.3-3.3-3.3h-1.2v-1.1h1.2c1.8,0,3.3-1.5,3.3-3.3c0-1.8-1.5-3.3-3.3-3.3h-1.2v-4c0,0,0-0.1,0-0.1c0.1-1.2-0.6-2.5-1.7-3.1
			l-20.4-10.8c-1.6-0.8-3.6-0.2-4.4,1.4c-0.8,1.6-0.2,3.6,1.4,4.4l8.9,4.7h-16.9V40.6c0,0,0,0,0-0.1c0-0.6-0.2-1.2-0.6-1.8l-14.2-21
			c-0.6-0.9-1.6-1.4-2.7-1.4c-1.1,0-2.1,0.5-2.7,1.4L81.5,38.1L49,55.4c-1.1,0.6-1.8,1.8-1.7,3.1c0,0,0,0.1,0,0.1v4h-1.2
			c-1.8,0-3.3,1.5-3.3,3.3c0,1.8,1.5,3.3,3.3,3.3h1.2v1.1h-1.2c-1.8,0-3.3,1.5-3.3,3.3s1.5,3.3,3.3,3.3h1.2v1.2
			c0,1.8,1.5,3.3,3.3,3.3c1.8,0,3.3-1.5,3.3-3.3v-1.2H55c1.8,0,3.3-1.5,3.3-3.3s-1.5-3.3-3.3-3.3h-1.2v-1.1H55
			c1.8,0,3.3-1.5,3.3-3.3c0-1.8-1.5-3.3-3.3-3.3h-1.2v-1.1h26.7V74L49,90.7c-1.1,0.6-1.7,1.7-1.7,2.9c0,0,0,0,0,0.1v4h-1.2
			c-1.8,0-3.3,1.5-3.3,3.3c0,1.8,1.5,3.3,3.3,3.3h1.2v1.1h-1.2c-1.8,0-3.3,1.5-3.3,3.3s1.5,3.3,3.3,3.3h1.2v1.2
			c0,1.8,1.5,3.3,3.3,3.3c1.8,0,3.3-1.5,3.3-3.3v-1.2H55c1.8,0,3.3-1.5,3.3-3.3s-1.5-3.3-3.3-3.3h-1.2v-1.1H55
			c1.8,0,3.3-1.5,3.3-3.3s-1.5-3.3-3.3-3.3h-1.2v-0.9h25.9l-18.1,79c-0.4,1.8,0.7,3.5,2.4,3.9c0.3,0.1,0.5,0.1,0.8,0.1
			c0,0,0.1,0,0.1,0c0.8,0,1.7-0.3,2.3-1l32.2-32.2H121l4.6,20.1l-7.4-7.4c-1.3-1.3-3.3-1.3-4.6,0c-1.3,1.3-1.3,3.3,0,4.6l15.1,14.8
			L129.5,179.3z M79,128.9l6.9,6.9c0.6,0.6,1.5,1,2.3,1c0.8,0,1.7-0.3,2.3-1c1.3-1.3,1.3-3.3,0-4.6l-8.3-8.3l10.1-8.4
			c1.4-1.1,1.6-3.2,0.4-4.6c-1.1-1.4-3.2-1.6-4.6-0.4l-5.8,4.9l3.4-14.8l28.1,23.4l-17,17H76.5L79,128.9z M109,72.7H87V61.6H109
			V72.7z M92.6,96.9h17l4,17.5L92.6,96.9z M87,90.3V79.2H109v11.1H87z M87,55V43.9H109V55C109,55,87,55,87,55z M98,25.5l8.1,11.9
			H89.9L98,25.5z M80.5,46V55H63.7L80.5,46z M80.5,81.4v8.9H63.7L80.5,81.4z M70.5,166.4l4.5-19.9h15.3L70.5,166.4z M106,140l11-11
			l2.5,11H106z M115.5,90.3v-8.9l16.9,8.9H115.5z"/>
	</g>
</g>
<line class="st2" x1="140.3" y1="100.8" x2="150.1" y2="100.8"/>
<line class="st2" x1="140.3" y1="108.6" x2="150.1" y2="108.6"/>
<line class="st2" x1="45.8" y1="100.8" x2="55.6" y2="100.8"/>
<line class="st2" x1="45.8" y1="108.6" x2="55.6" y2="108.6"/>
<line class="st2" x1="140.3" y1="65.7" x2="150.1" y2="65.7"/>
<line class="st2" x1="140.3" y1="73.2" x2="150.1" y2="73.2"/>
<line class="st2" x1="45.8" y1="65.7" x2="55.6" y2="65.7"/>
<line class="st2" x1="45.8" y1="73.2" x2="55.6" y2="73.2"/>
</svg>
