<?xml version="1.0" encoding="utf-8"?>
<!-- Generator: Adobe Illustrator 27.3.1, SVG Export Plug-In . SVG Version: 6.00 Build 0)  -->
<svg version="1.1" id="Layer_1" xmlns="http://www.w3.org/2000/svg" xmlns:xlink="http://www.w3.org/1999/xlink" x="0px" y="0px"
	 viewBox="0 0 196 196" style="enable-background:new 0 0 196 196;" xml:space="preserve">
<style type="text/css">
	.st0{fill:#E6F7F0;}
	.st1{fill:#119D60;stroke:#119D60;stroke-width:3;stroke-miterlimit:27.2222;}
	.st2{opacity:0.5;fill:#119D60;stroke:#119D60;stroke-width:3;stroke-miterlimit:27.2222;}
</style>
<path class="st0" d="M178.1,82.3c-3-16.9-29.7-45.5-40.2-50s-9.4-10.6-18.9-8.5s-12.4,9.3-21,10.8s-27.1-16.7-51.9-6.3
	s-32.9,71.5-31.9,84.1c1,13.3,22.7,15.8,32.1,19.4c9.4,3.5,17.2,14.7,17.2,14.7c13.6,14.5,18.4,31.3,38,35
	c22.9,4.4,61.7-15.6,76.4-33.7C192.2,130.2,182,104.7,178.1,82.3z"/>
<g>
	<path class="st1" d="M173.4,124c-1-5-3.7-8.7-8-11.2c-2.7-1.6-5.8-2.2-9-2.1c-2.1,0-4.2,0-6.3,0c0-2.6,0-4.8,0-7.2
		c3.7-0.8,6.4-3,8.5-6c1.8-2.7,2-5.8,2-8.8c0-17.7,0-35.4,0-53.1c0-3.6-1.1-6.8-3.6-9.4c-2.7-2.9-6.1-4-9.9-4
		c-16.1,0-32.1-0.1-48.2,0c-4.5,0-8.4,1.4-11.3,5.3c-1.5,2-2.4,4.1-2.4,6.3c-0.1,17.6-0.1,35.1,0,52.7c0,2.3-0.1,4.6,0.4,7
		c0.7,3.3,2.3,5.5,4.6,7.5c1.6,1.3,3.6,1.9,5.5,2.5c0,1.9-0.1,3.7,0,5.5c0.1,1.3-0.3,1.6-1.6,1.6c-4.8-0.1-9.7,0-14.5,0
		c-3.2,0-6.4,0-9.7,0c0-1.5,0-2.8,0-4.1c0.1-1.5-0.8-2.3-2.2-2.3c-4.4,0-8.9-0.1-13.3,0c-1.6,0-2.4,0.9-2.4,2.6c0,1.3,0,2.6,0,4
		c-3.7,0.1-5.4-1.5-5.4-5c0-4.2,0-8.4,0-12.6c0-2.7-0.7-3.4-3.3-3.4c-5.9,0-11.8,0-17.7,0c-0.7,0-1.3,0.1-2,0.2
		c-1,0.1-1.5,0.9-1.5,1.7c0.3,9.6,0,19.2,0.1,28.8c0,1.2-0.1,2.5,0.1,3.7c0.8,3.4,2.1,6.6,4,9.6s4.9,4.9,7.6,6.9
		c2.9,2.3,6.7,3.2,10.6,3.2c2.3,0,4.7,0,7.1,0c0,1.3-0.1,2.5,0,3.6c0.1,1.6,0.8,3,2.9,2.9c4.1-0.2,8.3,0,12.5-0.1
		c1.8,0,2.7-1,2.8-2.8c0.1-1.2-0.2-2.4,0.1-3.6c8.5,0,16.9,0,25.4,0c0,4.7,0,9.3,0,14.1c-1.6,0-3.2,0-4.7,0c-2.3,0-2.8,0.5-2.8,2.9
		c0,3.4,0,6.7,0,10.1c0,2.3,0.5,2.9,2.8,2.9c21.4,0,42.8,0,64.2,0c2.1,0,3-0.9,3-2.9c0-3.3,0-6.6,0-9.9c0-2.2-0.9-3-3.1-3
		c-1.6,0-3.1,0-4.7,0c0-4.8,0-9.5,0-14.2c2.3,0,4.5,0,6.8,0c3.1,0,5.9-0.8,8.7-2.3c3.9-2.1,6.1-5.6,7.5-9.4
		C174,129.7,174,126.8,173.4,124z M52.3,139.2c-4.9-0.1-9.9,0.6-14.6-1.9c-4.5-2.4-7.5-6-9.6-10.6c-0.2-0.4-0.4-0.6-0.6-1.1
		c-0.2-0.4-0.3-0.8-0.3-0.9C26,120,26.9,115,27,110.1c0.1-4.9,0-9.9,0-14.8c0-0.3,0-0.5,0-0.9c5.2,0,10.1,0,15.2,0
		c0,4.3,0,8.6,0,12.8c0,2.8,1.5,5,3.7,6.7c1.8,1.4,4,1.6,6.3,1.7C52.3,123.4,52.3,131.2,52.3,139.2z M65.4,145.5c-2.9,0-5.7,0-8.6,0
		c0-12.3,0-24.5,0-36.8c2.9,0,5.7,0,8.6,0C65.4,121,65.4,133.2,65.4,145.5z M90,93.4c-0.4-1.2-0.3-2.4-0.3-3.6c0-17.8,0-35.6,0-53.4
		c0-2-0.2-4,1.1-5.7c1.8-2.5,4.2-3.9,7.2-3.9c16.1,0,32.2,0,48.3,0c5.9,0,9.7,3.5,9.6,9.7c-0.1,8.9,0,17.7,0,26.6
		c0,8.8-0.1,17.6,0.1,26.4c0.1,3.4-1.4,6-3.5,8.2c-0.8,0.8-2.5,1.4-4,1.4c-16.9,0-33.8,0-50.7,0C94,99,91.2,97,90,93.4z
		 M145.3,103.9c0,2.3,0,4.4,0,6.7c-15,0-30,0-45,0c0-2.2,0-4.4,0-6.7C115.3,103.9,130.2,103.9,145.3,103.9z M70.3,139
		c0-7.9,0-15.8,0-23.8c4.2,0,8.3,0,12.4,0c0.1,0,0.2,0,0.3,0c-0.1,0.1-0.1,0.2-0.2,0.3c-3.7,4-5.4,8.7-4.7,14
		c0.4,3.6,2.1,6.7,4.7,9.4C78.5,139,74.4,139,70.3,139z M153.1,162.8c0,2.2,0,4.3,0,6.5c-20.2,0-40.3,0-60.5,0c0-2.2,0-4.3,0-6.5
		C112.7,162.8,132.8,162.8,153.1,162.8z M100.6,143.8c14.9,0,29.7,0,44.7,0c0,4.7,0,9.3,0,14c-0.1,0.1-0.2,0.1-0.3,0.1
		c-14.8,0-29.6,0-44.4,0c-0.3,0-0.4-0.1-0.3-0.3c0-4.5,0-9,0-13.4C100.2,143.9,100.3,143.8,100.6,143.8z M165.5,135.9
		c-2.1,1.9-4.5,3.2-7.5,3.2c-10.7,0-21.4,0-32.1,0l0,0c-10.4,0-20.8,0-31.1,0c-6.3,0-10.6-3.2-12.1-9.3c-1.4-5.7,1.2-11.4,7.1-13.7
		c1.8-0.7,3.6-0.9,5.4-0.9c20.3,0,40.5,0,60.8,0c2,0,4.2-0.1,5.9,0.7c3.5,1.8,6.4,4.5,7,8.6C169.5,128.8,168.9,132.8,165.5,135.9z"
		/>
	<path class="st2" d="M127.5,62.3c0-9.2,0-18.4,0-27.6c0-1.2,0.7-1.7,1.8-1.9c1.6-0.4,2.4,0.3,2.8,1.7c0.1,0.4,0.1,0.9,0.1,1.3
		c0,18,0,36,0,54.1c0,2.4-0.7,3.3-2.3,3.3c-1.2,0-1.9-0.6-2.1-1.7c-0.1-0.8-0.2-1.6-0.2-2.3C127.5,80.1,127.5,71.2,127.5,62.3
		L127.5,62.3z"/>
	<path class="st2" d="M99.1,62.1c0-9.2,0-18.4,0-27.6c0-1.1,0.7-1.6,1.6-1.7c1.7-0.3,2.8,0.4,3,1.8c0.1,0.4,0,0.9,0,1.3
		c0,17.9,0,35.8,0,53.7c0,1.1-0.1,2.1-1,2.9c-1.2,1-3,0.6-3.4-0.9c-0.2-0.7-0.2-1.5-0.2-2.3C99.2,80.2,99.2,71.2,99.1,62.1
		C99.2,62.1,99.2,62.1,99.1,62.1z"/>
	<path class="st2" d="M117.9,63c0,8.9,0,17.7,0,26.6c0,0.7,0.1,1.4-0.3,2.1c-0.5,1-1.3,1.6-2.3,1.4c-1.1-0.3-1.8-1-1.9-2.2
		c0-0.5,0-1,0-1.5c0-18,0-36,0-54c0-2.4,1.3-3.3,3.4-2.5c0.5,0.2,0.9,0.6,1,1.3c0.1,0.9,0.3,1.7,0.3,2.6
		C117.9,45.5,117.9,54.2,117.9,63z"/>
	<path class="st2" d="M141.7,62.4c0-9.3,0-18.6,0-27.9c0-0.9,0.4-1.6,1.2-1.7c1-0.1,2.2-0.5,2.9,0.7c0.4,0.7,0.5,1.4,0.5,2.2
		c0,18.1,0,36.3,0,54.4c0,1.9-1.5,3.3-3.2,2.9c-0.8-0.2-1.2-1-1.3-1.8c-0.1-0.7-0.1-1.3-0.1-2C141.8,80.3,141.8,71.4,141.7,62.4
		C141.8,62.4,141.8,62.4,141.7,62.4z"/>
</g>
</svg>
